<svg width="127" height="46" viewBox="0 0 127 46" fill="none" xmlns="http://www.w3.org/2000/svg">
<path d="M63.68 18.08C63.3707 17.4293 62.9227 16.928 62.336 16.576C61.7493 16.2133 61.0667 16.032 60.288 16.032C59.5093 16.032 58.8053 16.2133 58.176 16.576C57.5573 16.928 57.0667 17.44 56.704 18.112C56.352 18.7733 56.176 19.5413 56.176 20.416C56.176 21.2907 56.352 22.0587 56.704 22.72C57.0667 23.3813 57.5573 23.8933 58.176 24.256C58.8053 24.608 59.5093 24.784 60.288 24.784C61.376 24.784 62.272 24.4587 62.976 23.808C63.68 23.1573 64.0907 22.2773 64.208 21.168H59.76V19.984H65.76V21.104C65.6747 22.0213 65.3867 22.864 64.896 23.632C64.4053 24.3893 63.76 24.992 62.96 25.44C62.16 25.8773 61.2693 26.096 60.288 26.096C59.2533 26.096 58.3093 25.856 57.456 25.376C56.6027 24.8853 55.9253 24.208 55.424 23.344C54.9333 22.48 54.688 21.504 54.688 20.416C54.688 19.328 54.9333 18.352 55.424 17.488C55.9253 16.6133 56.6027 15.936 57.456 15.456C58.3093 14.9653 59.2533 14.72 60.288 14.72C61.472 14.72 62.5173 15.0133 63.424 15.6C64.3413 16.1867 65.008 17.0133 65.424 18.08H63.68ZM68.4371 15.808C68.1598 15.808 67.9251 15.712 67.7331 15.52C67.5411 15.328 67.4451 15.0933 67.4451 14.816C67.4451 14.5387 67.5411 14.304 67.7331 14.112C67.9251 13.92 68.1598 13.824 68.4371 13.824C68.7038 13.824 68.9278 13.92 69.1091 14.112C69.3011 14.304 69.3971 14.5387 69.3971 14.816C69.3971 15.0933 69.3011 15.328 69.1091 15.52C68.9278 15.712 68.7038 15.808 68.4371 15.808ZM69.1411 17.232V26H67.6851V17.232H69.1411ZM73.3986 18.432V23.6C73.3986 24.0267 73.4893 24.3307 73.6706 24.512C73.852 24.6827 74.1666 24.768 74.6146 24.768H75.6866V26H74.3746C73.564 26 72.956 25.8133 72.5506 25.44C72.1453 25.0667 71.9426 24.4533 71.9426 23.6V18.432H70.8066V17.232H71.9426V15.024H73.3986V17.232H75.6866V18.432H73.3986ZM86.0428 14.848V26H84.5868V20.944H78.9068V26H77.4508V14.848H78.9068V19.744H84.5868V14.848H86.0428ZM96.3049 17.232V26H94.8489V24.704C94.5715 25.152 94.1822 25.504 93.6809 25.76C93.1902 26.0053 92.6462 26.128 92.0489 26.128C91.3662 26.128 90.7529 25.9893 90.2089 25.712C89.6649 25.424 89.2329 24.9973 88.9129 24.432C88.6035 23.8667 88.4489 23.1787 88.4489 22.368V17.232H89.8889V22.176C89.8889 23.04 90.1075 23.7067 90.5449 24.176C90.9822 24.6347 91.5795 24.864 92.3369 24.864C93.1155 24.864 93.7289 24.624 94.1769 24.144C94.6249 23.664 94.8489 22.9653 94.8489 22.048V17.232H96.3049ZM100.219 18.864C100.518 18.3413 100.955 17.9147 101.531 17.584C102.107 17.2533 102.763 17.088 103.499 17.088C104.289 17.088 104.998 17.2747 105.627 17.648C106.257 18.0213 106.753 18.5493 107.115 19.232C107.478 19.904 107.659 20.688 107.659 21.584C107.659 22.4693 107.478 23.2587 107.115 23.952C106.753 24.6453 106.251 25.184 105.611 25.568C104.982 25.952 104.278 26.144 103.499 26.144C102.742 26.144 102.075 25.9787 101.499 25.648C100.934 25.3173 100.507 24.896 100.219 24.384V26H98.7633V14.16H100.219V18.864ZM106.171 21.584C106.171 20.9227 106.038 20.3467 105.771 19.856C105.505 19.3653 105.142 18.992 104.683 18.736C104.235 18.48 103.739 18.352 103.195 18.352C102.662 18.352 102.166 18.4853 101.707 18.752C101.259 19.008 100.897 19.3867 100.619 19.888C100.353 20.3787 100.219 20.9493 100.219 21.6C100.219 22.2613 100.353 22.8427 100.619 23.344C100.897 23.8347 101.259 24.2133 101.707 24.48C102.166 24.736 102.662 24.864 103.195 24.864C103.739 24.864 104.235 24.736 104.683 24.48C105.142 24.2133 105.505 23.8347 105.771 23.344C106.038 22.8427 106.171 22.256 106.171 21.584Z" fill="black"/>
<path d="M36.6206 0H6.78159C3.03622 0 0 2.7545 0 6.15234V33.2227C0 36.6205 3.03622 39.375 6.78159 39.375H36.6206C40.366 39.375 43.4022 36.6205 43.4022 33.2227V6.15234C43.4022 2.7545 40.366 0 36.6206 0Z" fill="#231E1B"/>
<path fill-rule="evenodd" clip-rule="evenodd" d="M21.6679 10.08C15.6952 10.08 10.8506 14.4751 10.8506 19.8937C10.8506 24.2285 13.9697 27.9011 18.217 29.2257C18.7479 29.2859 18.947 28.9848 18.947 28.744C18.947 28.5032 18.947 27.9011 18.947 27.0582C15.9606 27.6603 15.297 25.7337 15.297 25.7337C14.8324 24.5898 14.1024 24.2887 14.1024 24.2887C13.107 23.6867 14.1688 23.6867 14.1688 23.6867C15.2306 23.7469 15.8279 24.7102 15.8279 24.7102C16.8234 26.2153 18.3497 25.7939 18.947 25.5531C19.0134 24.8908 19.3452 24.4694 19.6107 24.2285C17.2215 23.9877 14.6997 23.1448 14.6997 19.3518C14.6997 18.2681 15.0979 17.4252 15.8279 16.7027C15.7615 16.5221 15.3633 15.4986 15.9606 14.1741C15.9606 14.1741 16.8897 13.9332 18.947 15.1976C19.8097 14.9567 20.7388 14.8965 21.6679 14.8965C22.597 14.8965 23.5261 15.0169 24.3889 15.1976C26.4462 13.9332 27.3753 14.1741 27.3753 14.1741C27.9725 15.4986 27.5744 16.5221 27.508 16.7629C28.1716 17.4252 28.6362 18.3283 28.6362 19.412C28.6362 23.205 26.1143 23.9877 23.7252 24.2285C24.1234 24.5296 24.4552 25.1316 24.4552 26.0347C24.4552 27.3593 24.4552 28.3828 24.4552 28.744C24.4552 28.9848 24.6543 29.2859 25.1852 29.2257C29.4989 27.9011 32.5517 24.2285 32.5517 19.8937C32.4853 14.4751 27.6407 10.08 21.6679 10.08Z" fill="white"/>
</svg>
