<svg width="138" height="44" viewBox="0 0 138 44" fill="none" xmlns="http://www.w3.org/2000/svg">
<path d="M57.688 15.848V27H56.232V15.848H57.688ZM64.4415 18.072C65.5082 18.072 66.3722 18.3973 67.0335 19.048C67.6948 19.688 68.0255 20.616 68.0255 21.832V27H66.5855V22.04C66.5855 21.1653 66.3668 20.4987 65.9295 20.04C65.4922 19.5707 64.8948 19.336 64.1375 19.336C63.3695 19.336 62.7562 19.576 62.2975 20.056C61.8495 20.536 61.6255 21.2347 61.6255 22.152V27H60.1695V18.232H61.6255V19.48C61.9135 19.032 62.3028 18.6853 62.7935 18.44C63.2948 18.1947 63.8442 18.072 64.4415 18.072ZM73.5079 27.144C72.8359 27.144 72.2332 27.032 71.6999 26.808C71.1665 26.5733 70.7452 26.2533 70.4359 25.848C70.1265 25.432 69.9559 24.9573 69.9239 24.424H71.4279C71.4705 24.8613 71.6732 25.2187 72.0359 25.496C72.4092 25.7733 72.8945 25.912 73.4919 25.912C74.0465 25.912 74.4839 25.7893 74.8039 25.544C75.1239 25.2987 75.2839 24.9893 75.2839 24.616C75.2839 24.232 75.1132 23.9493 74.7719 23.768C74.4305 23.576 73.9025 23.3893 73.1879 23.208C72.5372 23.0373 72.0039 22.8667 71.5879 22.696C71.1825 22.5147 70.8305 22.2533 70.5319 21.912C70.2439 21.56 70.0999 21.1013 70.0999 20.536C70.0999 20.088 70.2332 19.6773 70.4999 19.304C70.7665 18.9307 71.1452 18.6373 71.6359 18.424C72.1265 18.2 72.6865 18.088 73.3159 18.088C74.2865 18.088 75.0705 18.3333 75.6679 18.824C76.2652 19.3147 76.5852 19.9867 76.6279 20.84H75.1719C75.1399 20.3813 74.9532 20.0133 74.6119 19.736C74.2812 19.4587 73.8332 19.32 73.2679 19.32C72.7452 19.32 72.3292 19.432 72.0199 19.656C71.7105 19.88 71.5559 20.1733 71.5559 20.536C71.5559 20.824 71.6465 21.064 71.8279 21.256C72.0199 21.4373 72.2545 21.5867 72.5319 21.704C72.8199 21.8107 73.2145 21.9333 73.7159 22.072C74.3452 22.2427 74.8572 22.4133 75.2519 22.584C75.6465 22.744 75.9825 22.9893 76.2599 23.32C76.5479 23.6507 76.6972 24.0827 76.7079 24.616C76.7079 25.096 76.5745 25.528 76.3079 25.912C76.0412 26.296 75.6625 26.6 75.1719 26.824C74.6919 27.0373 74.1372 27.144 73.5079 27.144ZM80.5393 19.432V24.6C80.5393 25.0267 80.6299 25.3307 80.8113 25.512C80.9926 25.6827 81.3073 25.768 81.7552 25.768H82.8273V27H81.5153C80.7046 27 80.0966 26.8133 79.6913 26.44C79.2859 26.0667 79.0833 25.4533 79.0833 24.6V19.432H77.9473V18.232H79.0833V16.024H80.5393V18.232H82.8273V19.432H80.5393ZM84.0474 22.584C84.0474 21.688 84.2287 20.904 84.5914 20.232C84.954 19.5493 85.45 19.0213 86.0794 18.648C86.7194 18.2747 87.4287 18.088 88.2074 18.088C88.9754 18.088 89.642 18.2533 90.2074 18.584C90.7727 18.9147 91.194 19.3307 91.4714 19.832V18.232H92.9434V27H91.4714V25.368C91.1834 25.88 90.7514 26.3067 90.1754 26.648C89.61 26.9787 88.9487 27.144 88.1914 27.144C87.4127 27.144 86.7087 26.952 86.0794 26.568C85.45 26.184 84.954 25.6453 84.5914 24.952C84.2287 24.2587 84.0474 23.4693 84.0474 22.584ZM91.4714 22.6C91.4714 21.9387 91.338 21.3627 91.0714 20.872C90.8047 20.3813 90.442 20.008 89.9834 19.752C89.5354 19.4853 89.0394 19.352 88.4954 19.352C87.9514 19.352 87.4554 19.48 87.0074 19.736C86.5594 19.992 86.202 20.3653 85.9354 20.856C85.6687 21.3467 85.5354 21.9227 85.5354 22.584C85.5354 23.256 85.6687 23.8427 85.9354 24.344C86.202 24.8347 86.5594 25.2133 87.0074 25.48C87.4554 25.736 87.9514 25.864 88.4954 25.864C89.0394 25.864 89.5354 25.736 89.9834 25.48C90.442 25.2133 90.8047 24.8347 91.0714 24.344C91.338 23.8427 91.4714 23.2613 91.4714 22.6ZM99.0199 18.088C99.7772 18.088 100.439 18.2533 101.004 18.584C101.58 18.9147 102.007 19.3307 102.284 19.832V18.232H103.756V27.192C103.756 27.992 103.585 28.7013 103.244 29.32C102.903 29.9493 102.412 30.44 101.772 30.792C101.143 31.144 100.407 31.32 99.5639 31.32C98.4119 31.32 97.4519 31.048 96.6839 30.504C95.9159 29.96 95.4625 29.2187 95.3239 28.28H96.7639C96.9239 28.8133 97.2545 29.24 97.7559 29.56C98.2572 29.8907 98.8599 30.056 99.5639 30.056C100.364 30.056 101.015 29.8053 101.516 29.304C102.028 28.8027 102.284 28.0987 102.284 27.192V25.352C101.996 25.864 101.569 26.2907 101.004 26.632C100.439 26.9733 99.7772 27.144 99.0199 27.144C98.2412 27.144 97.5319 26.952 96.8919 26.568C96.2625 26.184 95.7665 25.6453 95.4039 24.952C95.0412 24.2587 94.8599 23.4693 94.8599 22.584C94.8599 21.688 95.0412 20.904 95.4039 20.232C95.7665 19.5493 96.2625 19.0213 96.8919 18.648C97.5319 18.2747 98.2412 18.088 99.0199 18.088ZM102.284 22.6C102.284 21.9387 102.151 21.3627 101.884 20.872C101.617 20.3813 101.255 20.008 100.796 19.752C100.348 19.4853 99.8519 19.352 99.3079 19.352C98.7639 19.352 98.2679 19.48 97.8199 19.736C97.3719 19.992 97.0145 20.3653 96.7479 20.856C96.4812 21.3467 96.3479 21.9227 96.3479 22.584C96.3479 23.256 96.4812 23.8427 96.7479 24.344C97.0145 24.8347 97.3719 25.2133 97.8199 25.48C98.2679 25.736 98.7639 25.864 99.3079 25.864C99.8519 25.864 100.348 25.736 100.796 25.48C101.255 25.2133 101.617 24.8347 101.884 24.344C102.151 23.8427 102.284 23.2613 102.284 22.6ZM107.672 19.656C107.928 19.1547 108.291 18.7653 108.76 18.488C109.24 18.2107 109.822 18.072 110.504 18.072V19.576H110.12C108.488 19.576 107.672 20.4613 107.672 22.232V27H106.216V18.232H107.672V19.656ZM111.641 22.584C111.641 21.688 111.822 20.904 112.185 20.232C112.548 19.5493 113.044 19.0213 113.673 18.648C114.313 18.2747 115.022 18.088 115.801 18.088C116.569 18.088 117.236 18.2533 117.801 18.584C118.366 18.9147 118.788 19.3307 119.065 19.832V18.232H120.537V27H119.065V25.368C118.777 25.88 118.345 26.3067 117.769 26.648C117.204 26.9787 116.542 27.144 115.785 27.144C115.006 27.144 114.302 26.952 113.673 26.568C113.044 26.184 112.548 25.6453 112.185 24.952C111.822 24.2587 111.641 23.4693 111.641 22.584ZM119.065 22.6C119.065 21.9387 118.932 21.3627 118.665 20.872C118.398 20.3813 118.036 20.008 117.577 19.752C117.129 19.4853 116.633 19.352 116.089 19.352C115.545 19.352 115.049 19.48 114.601 19.736C114.153 19.992 113.796 20.3653 113.529 20.856C113.262 21.3467 113.129 21.9227 113.129 22.584C113.129 23.256 113.262 23.8427 113.529 24.344C113.796 24.8347 114.153 25.2133 114.601 25.48C115.049 25.736 115.545 25.864 116.089 25.864C116.633 25.864 117.129 25.736 117.577 25.48C118.036 25.2133 118.398 24.8347 118.665 24.344C118.932 23.8427 119.065 23.2613 119.065 22.6ZM133.542 18.072C134.224 18.072 134.832 18.216 135.366 18.504C135.899 18.7813 136.32 19.2027 136.63 19.768C136.939 20.3333 137.094 21.0213 137.094 21.832V27H135.654V22.04C135.654 21.1653 135.435 20.4987 134.998 20.04C134.571 19.5707 133.99 19.336 133.254 19.336C132.496 19.336 131.894 19.5813 131.446 20.072C130.998 20.552 130.774 21.2507 130.774 22.168V27H129.334V22.04C129.334 21.1653 129.115 20.4987 128.678 20.04C128.251 19.5707 127.67 19.336 126.934 19.336C126.176 19.336 125.574 19.5813 125.126 20.072C124.678 20.552 124.454 21.2507 124.454 22.168V27H122.998V18.232H124.454V19.496C124.742 19.0373 125.126 18.6853 125.606 18.44C126.096 18.1947 126.635 18.072 127.222 18.072C127.958 18.072 128.608 18.2373 129.174 18.568C129.739 18.8987 130.16 19.384 130.438 20.024C130.683 19.4053 131.088 18.9253 131.654 18.584C132.219 18.2427 132.848 18.072 133.542 18.072Z" fill="black"/>
<path d="M22.5 26.675C20.3906 26.675 18.5625 25.1 18.5625 23C18.5625 21.0312 20.25 19.325 22.5 19.325C24.6094 19.325 26.4375 20.9 26.4375 23C26.4375 24.9687 24.6094 26.675 22.5 26.675Z" fill="black"/>
<path fill-rule="evenodd" clip-rule="evenodd" d="M27.2812 14.075H17.7188C16.5938 14.2062 16.0313 14.3375 15.6094 14.4687C15.0469 14.6 14.625 14.8625 14.2031 15.2562C13.8693 15.5678 13.7116 15.8794 13.5209 16.256C13.4707 16.3552 13.418 16.4593 13.3594 16.5687C13.3376 16.6297 13.3125 16.6937 13.2856 16.7624C13.1385 17.1375 12.9375 17.6499 12.9375 18.5375V27.4625C13.0781 28.5125 13.2187 29.0375 13.3594 29.4312C13.5 29.9562 13.7813 30.35 14.2031 30.7437C14.537 31.0553 14.8708 31.2025 15.2743 31.3805C15.3807 31.4274 15.492 31.4765 15.6094 31.5312C15.6746 31.5516 15.7433 31.575 15.8168 31.6001C16.2187 31.7374 16.7678 31.925 17.7188 31.925H27.2812C28.4062 31.7937 28.9688 31.6625 29.3906 31.5312C29.9531 31.4 30.375 31.1375 30.7969 30.7437C31.1307 30.4322 31.2884 30.1206 31.4791 29.744C31.5293 29.6447 31.5819 29.5408 31.6406 29.4312C31.6624 29.3703 31.6875 29.3063 31.7144 29.2376C31.8615 28.8625 32.0625 28.3501 32.0625 27.4625V18.5375C31.9219 17.4875 31.7813 16.9625 31.6406 16.5687C31.5 16.0437 31.2187 15.65 30.7969 15.2562C30.463 14.9447 30.1292 14.7975 29.7257 14.6195C29.6195 14.5727 29.5078 14.5234 29.3906 14.4687C29.3254 14.4484 29.2567 14.425 29.1832 14.3999C28.7813 14.2626 28.2322 14.075 27.2812 14.075ZM22.5 17.3562C19.125 17.3562 16.4531 19.85 16.4531 23C16.4531 26.15 19.125 28.6437 22.5 28.6437C25.875 28.6437 28.5469 26.15 28.5469 23C28.5469 19.85 25.875 17.3562 22.5 17.3562ZM30.0937 17.225C30.0937 17.9499 29.4641 18.5375 28.6875 18.5375C27.9108 18.5375 27.2812 17.9499 27.2812 17.225C27.2812 16.5001 27.9108 15.9125 28.6875 15.9125C29.4641 15.9125 30.0937 16.5001 30.0937 17.225Z" fill="black"/>
<path fill-rule="evenodd" clip-rule="evenodd" d="M0 23C0 11.402 10.0736 2 22.5 2C34.9264 2 45 11.402 45 23C45 34.598 34.9264 44 22.5 44C10.0736 44 0 34.598 0 23ZM17.7188 12.1062H27.2812C28.5469 12.2375 29.3906 12.3687 30.0937 12.6312C30.9375 13.025 31.5 13.2875 32.2031 13.9437C32.9062 14.6 33.3281 15.2562 33.6094 15.9125C33.8906 16.5687 34.1719 17.3562 34.1719 18.5375V27.4625C34.0312 28.6437 33.8906 29.4312 33.6094 30.0875C33.1875 30.875 32.9062 31.4 32.2031 32.0562C31.5 32.7125 30.7969 33.1062 30.0937 33.3687C29.3906 33.6312 28.5469 33.8937 27.2812 33.8937H17.7188C16.4531 33.7625 15.6094 33.6312 14.9063 33.3687C14.0625 32.975 13.5 32.7125 12.7969 32.0562C12.0938 31.4 11.6719 30.7437 11.3906 30.0875C11.1094 29.4312 10.8281 28.6437 10.8281 27.4625V18.5375C10.9687 17.3562 11.1094 16.5687 11.3906 15.9125C11.8125 15.125 12.0938 14.6 12.7969 13.9437C13.5 13.2875 14.2031 12.8937 14.9063 12.6312C15.6094 12.3687 16.4531 12.1062 17.7188 12.1062Z" fill="black"/>
</svg>
