<svg width="116" height="39" viewBox="0 0 116 39" fill="none" xmlns="http://www.w3.org/2000/svg">
<path fill-rule="evenodd" clip-rule="evenodd" d="M0 20C0 9.50659 8.95431 1 20 1C31.0457 1 40 9.50659 40 20C40 30.4934 31.0457 39 20 39C8.95431 39 0 30.4934 0 20ZM10.25 16.7938V29.5H14.5V16.7938H10.25ZM10 12.7563C10 14.0625 11 15.0125 12.375 15.0125C13.75 15.0125 14.75 14.0625 14.75 12.7563C14.75 11.45 13.75 10.5 12.375 10.5C11.125 10.5 10 11.45 10 12.7563ZM25.75 29.5H29.75V21.6625C29.75 17.7437 27.25 16.4375 24.875 16.4375C22.75 16.4375 21.25 17.7437 20.875 18.575V16.7938H16.875V29.5H21.125V22.7313C21.125 20.95 22.375 20 23.625 20C24.875 20 25.75 20.5938 25.75 22.6125V29.5Z" fill="black"/>
<path d="M48.688 24.816H52.592V26H47.232V14.848H48.688V24.816ZM54.8903 15.808C54.6129 15.808 54.3783 15.712 54.1863 15.52C53.9943 15.328 53.8983 15.0933 53.8983 14.816C53.8983 14.5387 53.9943 14.304 54.1863 14.112C54.3783 13.92 54.6129 13.824 54.8903 13.824C55.1569 13.824 55.3809 13.92 55.5623 14.112C55.7543 14.304 55.8503 14.5387 55.8503 14.816C55.8503 15.0933 55.7543 15.328 55.5623 15.52C55.3809 15.712 55.1569 15.808 54.8903 15.808ZM55.5943 17.232V26H54.1383V17.232H55.5943ZM62.3478 17.072C63.4144 17.072 64.2784 17.3973 64.9398 18.048C65.6011 18.688 65.9318 19.616 65.9318 20.832V26H64.4918V21.04C64.4918 20.1653 64.2731 19.4987 63.8358 19.04C63.3984 18.5707 62.8011 18.336 62.0438 18.336C61.2758 18.336 60.6624 18.576 60.2038 19.056C59.7558 19.536 59.5318 20.2347 59.5318 21.152V26H58.0758V17.232H59.5318V18.48C59.8198 18.032 60.2091 17.6853 60.6998 17.44C61.2011 17.1947 61.7504 17.072 62.3478 17.072ZM73.2061 26L69.7661 22.128V26H68.3101V14.16H69.7661V21.12L73.1421 17.232H75.1741L71.0461 21.6L75.1901 26H73.2061ZM84.5445 21.28C84.5445 21.5573 84.5285 21.8507 84.4965 22.16H77.4885C77.5418 23.024 77.8352 23.7013 78.3685 24.192C78.9125 24.672 79.5685 24.912 80.3365 24.912C80.9658 24.912 81.4885 24.768 81.9045 24.48C82.3312 24.1813 82.6298 23.7867 82.8005 23.296H84.3685C84.1338 24.1387 83.6645 24.8267 82.9605 25.36C82.2565 25.8827 81.3818 26.144 80.3365 26.144C79.5045 26.144 78.7578 25.9573 78.0965 25.584C77.4458 25.2107 76.9338 24.6827 76.5605 24C76.1872 23.3067 76.0005 22.5067 76.0005 21.6C76.0005 20.6933 76.1818 19.8987 76.5445 19.216C76.9072 18.5333 77.4138 18.0107 78.0645 17.648C78.7258 17.2747 79.4832 17.088 80.3365 17.088C81.1685 17.088 81.9045 17.2693 82.5445 17.632C83.1845 17.9947 83.6752 18.496 84.0165 19.136C84.3685 19.7653 84.5445 20.48 84.5445 21.28ZM83.0405 20.976C83.0405 20.4213 82.9178 19.9467 82.6725 19.552C82.4272 19.1467 82.0912 18.8427 81.6645 18.64C81.2485 18.4267 80.7845 18.32 80.2725 18.32C79.5365 18.32 78.9072 18.5547 78.3845 19.024C77.8725 19.4933 77.5792 20.144 77.5045 20.976H83.0405ZM85.9224 21.584C85.9224 20.688 86.1037 19.904 86.4664 19.232C86.829 18.5493 87.325 18.0213 87.9544 17.648C88.5944 17.2747 89.309 17.088 90.0984 17.088C90.781 17.088 91.4157 17.248 92.0024 17.568C92.589 17.8773 93.037 18.288 93.3464 18.8V14.16H94.8184V26H93.3464V24.352C93.0584 24.8747 92.6317 25.3067 92.0664 25.648C91.501 25.9787 90.8397 26.144 90.0824 26.144C89.3037 26.144 88.5944 25.952 87.9544 25.568C87.325 25.184 86.829 24.6453 86.4664 23.952C86.1037 23.2587 85.9224 22.4693 85.9224 21.584ZM93.3464 21.6C93.3464 20.9387 93.213 20.3627 92.9464 19.872C92.6797 19.3813 92.317 19.008 91.8584 18.752C91.4104 18.4853 90.9144 18.352 90.3704 18.352C89.8264 18.352 89.3304 18.48 88.8824 18.736C88.4344 18.992 88.077 19.3653 87.8104 19.856C87.5437 20.3467 87.4104 20.9227 87.4104 21.584C87.4104 22.256 87.5437 22.8427 87.8104 23.344C88.077 23.8347 88.4344 24.2133 88.8824 24.48C89.3304 24.736 89.8264 24.864 90.3704 24.864C90.9144 24.864 91.4104 24.736 91.8584 24.48C92.317 24.2133 92.6797 23.8347 92.9464 23.344C93.213 22.8427 93.3464 22.2613 93.3464 21.6ZM98.0309 15.808C97.7535 15.808 97.5189 15.712 97.3269 15.52C97.1349 15.328 97.0389 15.0933 97.0389 14.816C97.0389 14.5387 97.1349 14.304 97.3269 14.112C97.5189 13.92 97.7535 13.824 98.0309 13.824C98.2975 13.824 98.5215 13.92 98.7029 14.112C98.8949 14.304 98.9909 14.5387 98.9909 14.816C98.9909 15.0933 98.8949 15.328 98.7029 15.52C98.5215 15.712 98.2975 15.808 98.0309 15.808ZM98.7349 17.232V26H97.2789V17.232H98.7349ZM105.488 17.072C106.555 17.072 107.419 17.3973 108.08 18.048C108.742 18.688 109.072 19.616 109.072 20.832V26H107.632V21.04C107.632 20.1653 107.414 19.4987 106.976 19.04C106.539 18.5707 105.942 18.336 105.184 18.336C104.416 18.336 103.803 18.576 103.344 19.056C102.896 19.536 102.672 20.2347 102.672 21.152V26H101.216V17.232H102.672V18.48C102.96 18.032 103.35 17.6853 103.84 17.44C104.342 17.1947 104.891 17.072 105.488 17.072Z" fill="black"/>
</svg>
